<svg xmlns="http://www.w3.org/2000/svg" width="1024" height="1024" viewBox="0 0 1024 1024">
	<!-- coer91.styles -->
	<path d="M 358 258.513 C 322.854 263.347, 290.019 279.210, 265.964 302.975 C 240.793 327.844, 226 363.039, 226 398.059 C 226 419.278, 229.386 434.747, 237.917 452.500 C 252.759 483.385, 279.797 506.355, 313.099 516.370 C 333.251 522.430, 332.136 522.356, 412.500 522.952 L 486.500 523.500 482.325 526.500 C 473.027 533.180, 413.682 580.452, 289 680.494 C 240.003 719.808, 220.152 735.813, 208 745.801 L 203.500 749.500 209.500 750 C 212.800 750.275, 243.691 750.585, 278.148 750.690 L 340.796 750.880 351.266 742.690 C 357.024 738.185, 366.858 730.469, 373.118 725.543 C 379.378 720.616, 396.650 707.095, 411.500 695.497 C 426.350 683.898, 451.100 664.513, 466.500 652.419 C 481.900 640.325, 504.625 622.555, 517 612.929 C 562.167 577.799, 566.412 574.447, 569.479 571.500 C 572.524 568.574, 572.743 567.727, 578.408 537 C 581.603 519.675, 585.955 496.500, 588.079 485.500 C 590.203 474.500, 593.733 455.825, 595.922 444 C 612.340 355.323, 626.580 279.674, 630.603 259.750 L 631.159 257 499.329 257.103 C 396.796 257.183, 365.389 257.496, 358 258.513 M 673.233 268.250 C 672.064 274.438, 667.258 299.593, 662.554 324.150 C 657.849 348.708, 654 369.295, 654 369.900 C 654 370.641, 658.076 371, 666.500 371 C 677.221 371, 679 371.225, 679 372.579 C 679 374.049, 672.138 410.443, 656.389 492.500 C 652.800 511.200, 647.407 539.550, 644.404 555.500 C 641.402 571.450, 636.281 598.225, 633.025 615 C 629.770 631.775, 623.472 664.400, 619.032 687.500 C 614.591 710.600, 610.031 733.872, 608.898 739.216 C 607.766 744.559, 607.095 749.344, 607.407 749.849 C 607.738 750.385, 628.765 750.813, 657.847 750.876 L 707.720 750.984 720.802 684.742 C 734.587 614.941, 743.297 570.283, 749.911 535.500 C 759.327 485.976, 790.387 325.374, 799.130 281 C 800.809 272.475, 802.426 263.587, 802.722 261.250 L 803.260 257 739.309 257 L 675.359 257 673.233 268.250 M 364.193 339.067 C 355.570 340.765, 344.940 346.857, 337.440 354.400 C 325.601 366.307, 320.748 377.462, 320.649 393 C 320.524 412.513, 329.515 427.609, 345.877 435.362 L 352.500 438.500 423.102 438.776 L 493.704 439.051 501.036 402.276 C 505.068 382.049, 508.343 363.250, 508.314 360.500 C 508.215 351.049, 503.960 344.367, 495.500 340.377 L 490.500 338.020 429.500 338.119 C 395.950 338.174, 366.562 338.601, 364.193 339.067" stroke="none" fill="currentColor" fill-rule="evenodd"/>
</svg>