<svg xmlns="http://www.w3.org/2000/svg" viewBox="0 0 169 129">
	<!-- coer91.styles -->
	<path d="M 2.927 6.666 L 5.842 13.500 67.171 14.008 L 128.500 14.516 134 17.222 C 142.117 21.216, 146.690 25.467, 150.280 32.354 C 153.362 38.269, 153.483 38.952, 153.491 50.500 C 153.499 61.634, 153.298 62.912, 150.694 68.214 C 147.255 75.218, 140.690 81.185, 133.147 84.163 C 127.736 86.300, 125.828 86.416, 87.500 86.946 C 43.165 87.560, 44.391 87.374, 38.203 94.422 C 26.398 107.867, 35.927 129, 53.794 129 C 60.240 129, 62.943 127.950, 67.808 123.555 C 72.716 119.120, 75.543 111.107, 74.546 104.456 L 73.877 100 93.392 100 L 112.906 100 112.329 104.869 C 109.909 125.301, 134.171 137.120, 148.197 122.342 C 155.566 114.577, 155.998 102.953, 149.227 94.600 L 146.877 91.700 151.829 87.368 C 169.895 71.565, 173.417 43.796, 159.958 23.275 C 153.250 13.046, 144.113 6.280, 132.123 2.663 C 125.877 0.779, 121.924 0.641, 62.756 0.249 L 0.013 -0.168 2.927 6.666 M 13.362 31.306 C 13.680 32.574, 14.875 35.724, 16.017 38.306 L 18.094 43 49.547 43 L 81 43 81 36 L 81 29 46.892 29 L 12.783 29 13.362 31.306 M 25.362 60.306 C 25.680 61.574, 26.863 64.696, 27.989 67.243 L 30.038 71.874 55.519 71.966 L 81 72.058 81 65.029 L 81 58 52.892 58 L 24.783 58 25.362 60.306" stroke="none" fill="#000000" fill-rule="evenodd"/>
</svg>