<svg xmlns="http://www.w3.org/2000/svg" viewBox="0 0 119 159">
	<!-- coer91.styles -->
	<g transform="translate(0.000000,159.000000) scale(0.100000,-0.100000)" fill="#000000" stroke="none">
		<path d="M94 1571 c-18 -11 -45 -36 -60 -57 l-29 -37 0 -678 0 -677 31 -39
		c66 -81 42 -78 554 -78 442 0 456 1 495 21 22 11 54 40 70 63 l30 43 3 506 c2
		358 0 518 -8 546 -9 30 -48 76 -163 194 -84 85 -170 168 -191 183 l-39 29
		-331 0 c-308 0 -333 -1 -362 -19z m598 -267 l3 -146 33 -29 32 -29 140 0 140
		0 0 -463 c0 -347 -3 -466 -12 -475 -9 -9 -119 -12 -434 -12 -371 0 -424 2
		-438 16 -14 14 -16 85 -16 634 0 549 2 620 16 634 13 14 52 16 274 16 l258 0
		4 -146z"/>
		<path d="M432 766 c-116 -114 -135 -138 -135 -165 0 -42 28 -71 70 -71 28 0
		45 10 94 57 l59 56 0 -167 c0 -95 4 -176 10 -186 27 -50 100 -49 125 0 11 22
		15 67 15 192 l0 162 58 -57 c46 -46 64 -57 90 -57 42 0 72 30 72 72 0 28 -18
		50 -133 165 -109 109 -138 133 -162 133 -23 0 -53 -24 -163 -134z"/>
	</g>
</svg>
