<svg xmlns="http://www.w3.org/2000/svg" viewBox="0 0 158 160">
	<!-- coer91.styles -->
	<g transform="translate(0.000000,160.000000) scale(0.100000,-0.100000)" fill="#000000" stroke="none">
		<path d="M135 1585 c-56 -20 -111 -84 -124 -146 -15 -70 -15 -1210 0 -1279 14
		-65 75 -133 134 -149 22 -6 100 -11 173 -11 l132 0 0 233 c0 131 5 248 11 270
		13 49 63 105 114 128 36 17 71 19 333 19 l292 0 0 225 0 225 -210 0 c-229 0
		-255 5 -278 55 -8 17 -12 94 -12 235 l0 210 -262 0 c-199 -1 -273 -4 -303 -15z"/>
		<path d="M800 1395 l0 -195 202 0 203 0 -195 195 c-107 107 -198 195 -202 195
		-5 0 -8 -88 -8 -195z"/>
		<path d="M615 476 c-21 -32 -6 -91 41 -163 19 -29 34 -58 34 -64 0 -6 -14 -31
		-31 -56 -27 -39 -59 -117 -59 -145 0 -13 39 -48 54 -48 21 0 46 28 46 52 0 12
		12 41 26 66 l26 44 24 -36 c13 -19 24 -46 24 -59 0 -14 9 -35 19 -48 16 -20
		23 -22 47 -14 51 18 45 89 -16 184 l-40 61 40 61 c61 95 67 166 16 184 -24 8
		-31 6 -47 -14 -10 -13 -19 -34 -19 -48 0 -13 -11 -40 -24 -59 l-24 -36 -26 44
		c-14 25 -26 57 -26 71 0 47 -59 63 -85 23z"/>
		<path d="M1016 478 c-13 -19 -16 -58 -16 -228 0 -259 -4 -250 121 -250 106 0
		129 9 129 50 0 38 -23 50 -94 50 l-56 0 0 190 c0 177 -1 190 -19 200 -30 16
		-48 12 -65 -12z"/>
		<path d="M1360 482 c-53 -26 -83 -77 -78 -133 6 -62 30 -91 112 -136 78 -43
		97 -64 80 -90 -8 -14 -27 -19 -78 -21 -58 -3 -68 -6 -82 -27 -15 -23 -15 -27
		0 -50 15 -22 23 -25 82 -25 107 0 165 38 179 119 13 75 -28 128 -142 185 -41
		20 -53 32 -53 49 0 35 19 47 78 47 69 0 92 13 92 50 0 19 -7 33 -19 40 -31 16
		-132 12 -171 -8z"/>
	</g>
</svg>
