<svg xmlns="http://www.w3.org/2000/svg" viewBox="0 0 160 160">
	<!-- coer91.styles -->
	<g transform="translate(0.000000,160.000000) scale(0.100000,-0.100000)" fill="#000000" stroke="none">
		<path d="M135 1585 c-56 -20 -111 -84 -124 -146 -15 -70 -15 -1210 0 -1279 8
		-39 22 -63 53 -95 49 -52 91 -65 204 -65 l82 0 0 75 0 75 -84 0 c-64 0 -88 4
		-100 16 -14 14 -16 85 -16 634 0 549 2 620 16 634 13 14 52 16 274 16 l258 0
		4 -146 3 -146 33 -29 32 -29 140 0 140 0 0 -225 0 -225 75 0 75 0 0 255 c0
		208 -3 263 -15 293 -10 23 -81 102 -188 208 -139 139 -180 174 -212 183 -63
		17 -599 14 -650 -4z"/>
		<path d="M585 491 c-28 -12 -62 -51 -74 -84 -6 -16 -11 -87 -11 -158 0 -142 9
		-177 55 -219 23 -22 36 -25 102 -25 74 0 75 0 109 38 32 34 35 42 32 90 -3 46
		-6 53 -31 61 -34 12 -56 -6 -66 -55 -7 -32 -9 -34 -51 -34 l-45 0 0 145 0 145
		45 0 c42 0 44 -2 51 -34 10 -49 32 -67 66 -55 25 8 28 15 31 61 3 47 0 56 -31
		90 -32 34 -39 37 -98 40 -35 1 -73 -1 -84 -6z"/>
		<path d="M980 482 c-67 -34 -93 -126 -53 -194 14 -24 43 -45 108 -78 91 -45
		109 -66 85 -95 -9 -11 -36 -15 -101 -15 -83 0 -89 -1 -105 -25 -15 -23 -15
		-27 0 -50 16 -24 21 -25 109 -25 143 0 203 42 201 141 -1 69 -24 96 -121 144
		-103 50 -110 57 -95 90 11 23 16 25 82 25 87 0 110 11 110 50 0 19 -7 33 -19
		40 -33 17 -161 12 -201 -8z"/>
		<path d="M1314 475 c-14 -22 -16 -42 -10 -127 7 -114 36 -210 86 -287 51 -80
		79 -79 128 3 64 105 75 148 76 291 l1 129 -29 10 c-24 9 -31 7 -47 -13 -16
		-19 -19 -40 -20 -120 0 -96 -23 -202 -44 -203 -22 -2 -47 98 -52 207 -4 84 -9
		113 -21 123 -25 19 -50 14 -68 -13z"/>
	</g>
</svg>
