<svg version="1.0" xmlns="http://www.w3.org/2000/svg" viewBox="0 0 120 160">
	<!-- coer91.styles -->
	<g transform="translate(0.000000,160.000000) scale(0.100000,-0.100000)" fill="#000000" stroke="none">
		<path d="M135 1585 c-56 -20 -111 -84 -124 -146 -15 -70 -15 -1210 0 -1279 14
		-67 75 -133 136 -149 29 -8 177 -11 475 -9 417 3 434 4 473 24 22 11 54 40 70
		63 l30 43 3 506 c2 365 0 518 -9 547 -17 59 -346 388 -404 404 -63 17 -600 14
		-650 -4z m567 -281 l3 -146 33 -29 32 -29 140 0 140 0 0 -463 c0 -347 -3 -466
		-12 -475 -9 -9 -119 -12 -434 -12 -371 0 -424 2 -438 16 -14 14 -16 85 -16
		634 0 549 2 620 16 634 13 14 52 16 274 16 l258 0 4 -146z"/>
		<path d="M555 925 c-25 -24 -25 -27 -25 -196 l0 -172 -59 56 c-49 47 -66 57
		-94 57 -42 0 -70 -29 -70 -71 0 -27 19 -51 135 -165 110 -110 140 -134 163
		-134 24 0 53 24 162 133 115 115 133 137 133 165 0 42 -30 72 -72 72 -26 0
		-44 -11 -90 -57 l-58 -57 0 162 c0 177 -9 214 -52 226 -38 10 -48 7 -73 -19z"/>
	</g>
</svg>
