<svg xmlns="http://www.w3.org/2000/svg" viewBox="0 0 148 148">
	<!-- coer91.styles -->
	<path d="M 8.110 6.348 C 4.058 8.674, 3.074 11.769, 3.035 22.300 C 2.978 38.218, 5.303 40.438, 21.424 39.848 C 30.286 39.525, 31.153 39.305, 33.729 36.727 C 36.434 34.020, 36.500 33.683, 36.500 22.500 C 36.500 11.318, 36.434 10.980, 33.730 8.273 C 31.107 5.648, 30.413 5.486, 20.730 5.238 C 13.478 5.053, 9.804 5.376, 8.110 6.348 M 62 5.706 C 61.175 6.008, 59.487 7.176, 58.250 8.302 C 56.152 10.210, 56 11.172, 56 22.500 C 56 34.267, 56.082 34.728, 58.579 37.076 C 60.862 39.223, 62.242 39.540, 70.634 39.848 C 86.998 40.450, 89 38.582, 89 22.712 C 89 10.818, 88.367 8.758, 84.020 6.510 C 81.137 5.019, 65.446 4.446, 62 5.706 M 113.110 6.348 C 109.058 8.674, 108.074 11.769, 108.035 22.300 C 107.978 38.218, 110.303 40.438, 126.424 39.848 C 135.286 39.525, 136.153 39.305, 138.729 36.727 C 141.434 34.020, 141.500 33.683, 141.500 22.500 C 141.500 11.318, 141.434 10.980, 138.730 8.273 C 136.107 5.648, 135.413 5.486, 125.730 5.238 C 118.478 5.053, 114.804 5.376, 113.110 6.348 M 5.923 60.923 C 3.042 63.804, 3 64.005, 3 75 C 3 85.995, 3.042 86.196, 5.923 89.077 C 8.788 91.941, 9.059 92, 19.489 92 C 25.342 92, 31.040 91.514, 32.150 90.920 C 35.361 89.201, 37 83.821, 37 75 C 37 66.179, 35.361 60.799, 32.150 59.080 C 31.040 58.486, 25.342 58, 19.489 58 C 9.059 58, 8.788 58.059, 5.923 60.923 M 58.646 60.452 C 56.066 62.844, 56 63.205, 56 75 C 56 86.795, 56.066 87.156, 58.646 89.548 C 61.119 91.840, 62.006 92, 72.223 92 C 82.971 92, 83.203 91.951, 86.077 89.077 C 88.958 86.196, 89 85.995, 89 75 C 89 64.005, 88.958 63.804, 86.077 60.923 C 83.203 58.049, 82.971 58, 72.223 58 C 62.006 58, 61.119 58.160, 58.646 60.452 M 110.923 60.923 C 108.042 63.804, 108 64.005, 108 75 C 108 85.995, 108.042 86.196, 110.923 89.077 C 113.788 91.941, 114.059 92, 124.489 92 C 130.342 92, 136.040 91.514, 137.150 90.920 C 140.361 89.201, 142 83.821, 142 75 C 142 66.179, 140.361 60.799, 137.150 59.080 C 136.040 58.486, 130.342 58, 124.489 58 C 114.059 58, 113.788 58.059, 110.923 60.923 M 8.110 111.348 C 4.058 113.674, 3.074 116.769, 3.035 127.300 C 2.978 143.218, 5.303 145.438, 21.424 144.848 C 30.286 144.525, 31.153 144.305, 33.729 141.727 C 36.434 139.020, 36.500 138.683, 36.500 127.500 C 36.500 116.318, 36.434 115.980, 33.730 113.273 C 31.107 110.648, 30.413 110.486, 20.730 110.238 C 13.478 110.053, 9.804 110.376, 8.110 111.348 M 62 110.706 C 61.175 111.008, 59.487 112.176, 58.250 113.302 C 56.152 115.210, 56 116.172, 56 127.500 C 56 139.267, 56.082 139.728, 58.579 142.076 C 60.862 144.223, 62.242 144.540, 70.634 144.848 C 86.998 145.450, 89 143.582, 89 127.712 C 89 115.818, 88.367 113.758, 84.020 111.510 C 81.137 110.019, 65.446 109.446, 62 110.706 M 113.110 111.348 C 109.058 113.674, 108.074 116.769, 108.035 127.300 C 107.978 143.218, 110.303 145.438, 126.424 144.848 C 135.286 144.525, 136.153 144.305, 138.729 141.727 C 141.434 139.020, 141.500 138.683, 141.500 127.500 C 141.500 116.318, 141.434 115.980, 138.730 113.273 C 136.107 110.648, 135.413 110.486, 125.730 110.238 C 118.478 110.053, 114.804 110.376, 113.110 111.348"/>
</svg>